<svg xmlns="http://www.w3.org/2000/svg" width="1000" height="400" preserveAspectRatio="xMinYMin meet"><rect class="grid-background" x="0" y="0" width="1000" height="400" fill="#f7f7f7" fill-opacity="0.5"/><g class="x-axis" transform="translate(0, 350)" fill="none" font-size="10" font-family="sans-serif" text-anchor="middle"><path class="domain" stroke="currentColor" d="M50,6V0H900V6"/><g class="tick" opacity="1" transform="translate(138.23254364089775,0)"><line stroke="currentColor" y2="6"/><text fill="currentColor" y="9" dy="0.71em">1000</text></g><g class="tick" opacity="1" transform="translate(226.5534081463009,0)"><line stroke="currentColor" y2="6"/><text fill="currentColor" y="9" dy="0.71em">2000</text></g><g class="tick" opacity="1" transform="translate(314.8742726517041,0)"><line stroke="currentColor" y2="6"/><text fill="currentColor" y="9" dy="0.71em">3000</text></g><g class="tick" opacity="1" transform="translate(403.19513715710724,0)"><line stroke="currentColor" y2="6"/><text fill="currentColor" y="9" dy="0.71em">4000</text></g><g class="tick" opacity="1" transform="translate(491.51600166251035,0)"><line stroke="currentColor" y2="6"/><text fill="currentColor" y="9" dy="0.71em">5000</text></g><g class="tick" opacity="1" transform="translate(579.8368661679135,0)"><line stroke="currentColor" y2="6"/><text fill="currentColor" y="9" dy="0.71em">6000</text></g><g class="tick" opacity="1" transform="translate(668.1577306733167,0)"><line stroke="currentColor" y2="6"/><text fill="currentColor" y="9" dy="0.71em">7000</text></g><g class="tick" opacity="1" transform="translate(756.4785951787198,0)"><line stroke="currentColor" y2="6"/><text fill="currentColor" y="9" dy="0.71em">8000</text></g><g class="tick" opacity="1" transform="translate(844.799459684123,0)"><line stroke="currentColor" y2="6"/><text fill="currentColor" y="9" dy="0.71em">9000</text></g><text class="axis-label" x="500" y="40" text-anchor="middle" fill="black" font-size="16">Genomic Position</text></g><g class="exons"><rect class="exon" x="50" y="285" width="65.53408146300913" height="30" fill="#4CAF50" stroke="black" stroke-width="1" rx="3" ry="3"><title>Exon: 1-743
Present in 4 transcripts</title></rect><rect class="exon" x="88.94950124688279" y="222.5" width="39.65606816292603" height="30" fill="#4CAF50" stroke="black" stroke-width="1" rx="3" ry="3"><title>Exon: 442-891
Present in 3 transcripts</title></rect><rect class="exon" x="252.96134663341647" y="285" width="228.5743973399834" height="30" fill="#4CAF50" stroke="black" stroke-width="1" rx="3" ry="3"><title>Exon: 2299-4887
Present in 3 transcripts</title></rect><rect class="exon" x="483.8320864505403" y="285" width="99.89089775561109" height="30" fill="#4CAF50" stroke="black" stroke-width="1" rx="3" ry="3"><title>Exon: 4913-6044
Present in 1 transcripts</title></rect><rect class="exon" x="483.8320864505403" y="222.5" width="4.327722360764767" height="30" fill="#4CAF50" stroke="black" stroke-width="1" rx="3" ry="3"><title>Exon: 4913-4962
Present in 1 transcripts</title></rect><rect class="exon" x="560.1413133832086" y="222.5" width="9.185369908561938" height="30" fill="#4CAF50" stroke="black" stroke-width="1" rx="3" ry="3"><title>Exon: 5777-5881
Present in 1 transcripts</title></rect><rect class="exon" x="577.540523690773" y="222.5" width="113.58063175394841" height="30" fill="#4CAF50" stroke="black" stroke-width="1" rx="3" ry="3"><title>Exon: 5974-7260
Present in 1 transcripts</title></rect><rect class="exon" x="577.7171654197839" y="160" width="152.88341645885282" height="30" fill="#4CAF50" stroke="black" stroke-width="1" rx="3" ry="3"><title>Exon: 5976-7707
Present in 1 transcripts</title></rect><rect class="exon" x="577.7171654197839" y="97.5" width="6.005818786367513" height="30" fill="#4CAF50" stroke="black" stroke-width="1" rx="3" ry="3"><title>Exon: 5976-6044
Present in 1 transcripts</title></rect><rect class="exon" x="759.0399002493765" y="285" width="140.78345802161266" height="30" fill="#4CAF50" stroke="black" stroke-width="1" rx="3" ry="3"><title>Exon: 8029-9623
Present in 1 transcripts</title></rect><rect class="exon" x="789.0689941812136" y="222.5" width="110.93100581878639" height="30" fill="#4CAF50" stroke="black" stroke-width="1" rx="3" ry="3"><title>Exon: 8369-9625
Present in 2 transcripts</title></rect></g><g class="junctions"><g class="transcript-junctions transcript-transcript85.AF324493.2.nnic"><path d="M 115.53408146300913 300&#xA;                  C 300.4073150457191 300,&#xA;                    392.84393183707397 175,&#xA;                    577.7171654197839 175" fill="none" stroke="#1f77b4" stroke-width="2" stroke-opacity="0.8"><title>Transcript: transcript85.AF324493.2.nnic
Junction: 743 → 5976</title></path><path d="M 730.6005818786367 175&#xA;                  C 741.9763092269326 175,&#xA;                    747.6641729010806 300,&#xA;                    759.0399002493765 300" fill="none" stroke="#1f77b4" stroke-width="2" stroke-opacity="0.8"><title>Transcript: transcript85.AF324493.2.nnic
Junction: 7707 → 8029</title></path></g><g class="transcript-junctions transcript-transcript158.AF324493.2.nnic"><path d="M 128.60556940980882 237.5&#xA;                  C 178.34788029925187 237.5,&#xA;                    203.2190357439734 300,&#xA;                    252.96134663341647 300" fill="none" stroke="#ff7f0e" stroke-width="2" stroke-opacity="0.8"><title>Transcript: transcript158.AF324493.2.nnic
Junction: 891 → 2299</title></path></g><g class="transcript-junctions transcript-transcript51.AF324493.2.nic"><path d="M 115.53408146300913 300&#xA;                  C 300.4073150457191 300,&#xA;                    392.84393183707397 112.5,&#xA;                    577.7171654197839 112.5" fill="none" stroke="#2ca02c" stroke-width="2" stroke-opacity="0.8"><title>Transcript: transcript51.AF324493.2.nic
Junction: 743 → 5976</title></path><path d="M 583.7229842061514 112.5&#xA;                  C 665.8613881961763 112.5,&#xA;                    706.9305901911887 237.5,&#xA;                    789.0689941812136 237.5" fill="none" stroke="#2ca02c" stroke-width="2" stroke-opacity="0.8"><title>Transcript: transcript51.AF324493.2.nic
Junction: 6044 → 8369</title></path></g><g class="transcript-junctions transcript-transcript102.AF324493.2.nic"><path d="M 115.53408146300913 300 &#xA;                  C 238.3000831255195 300,&#xA;                    361.0660847880299 300,&#xA;                    483.8320864505403 300" fill="none" stroke="#d62728" stroke-width="2" stroke-opacity="0.8"><title>Transcript: transcript102.AF324493.2.nic
Junction: 743 → 4913</title></path><path d="M 583.7229842061514 300&#xA;                  C 665.8613881961763 300,&#xA;                    706.9305901911887 237.5,&#xA;                    789.0689941812136 237.5" fill="none" stroke="#d62728" stroke-width="2" stroke-opacity="0.8"><title>Transcript: transcript102.AF324493.2.nic
Junction: 6044 → 8369</title></path></g><g class="transcript-junctions transcript-transcript173.AF324493.2.nnic"><path d="M 128.60556940980882 237.5&#xA;                  C 178.34788029925187 237.5,&#xA;                    203.2190357439734 300,&#xA;                    252.96134663341647 300" fill="none" stroke="#9467bd" stroke-width="2" stroke-opacity="0.8"><title>Transcript: transcript173.AF324493.2.nnic
Junction: 891 → 2299</title></path></g><g class="transcript-junctions transcript-transcript168.AF324493.2.nnic"><path d="M 128.60556940980882 237.5&#xA;                  C 178.34788029925187 237.5,&#xA;                    203.2190357439734 300,&#xA;                    252.96134663341647 300" fill="none" stroke="#8c564b" stroke-width="2" stroke-opacity="0.8"><title>Transcript: transcript168.AF324493.2.nnic
Junction: 891 → 2299</title></path></g><g class="transcript-junctions transcript-transcript26.AF324493.2.nnic"><path d="M 115.53408146300913 300&#xA;                  C 262.85328345802156 300,&#xA;                    336.51288445552785 237.5,&#xA;                    483.8320864505403 237.5" fill="none" stroke="#e377c2" stroke-width="2" stroke-opacity="0.8"><title>Transcript: transcript26.AF324493.2.nnic
Junction: 743 → 4913</title></path><path d="M 488.1598088113051 237.5 &#xA;                  C 512.1536436686063 259.09445137157104,&#xA;                    536.1474785259074 259.09445137157104,&#xA;                    560.1413133832086 237.5" fill="none" stroke="#e377c2" stroke-width="2" stroke-opacity="0.8"><title>Transcript: transcript26.AF324493.2.nnic
Junction: 4962 → 5777</title></path><path d="M 569.3266832917706 237.5 &#xA;                  C 572.0646300914381 257.5,&#xA;                    574.8025768911056 257.5,&#xA;                    577.540523690773 237.5" fill="none" stroke="#e377c2" stroke-width="2" stroke-opacity="0.8"><title>Transcript: transcript26.AF324493.2.nnic
Junction: 5881 → 5974</title></path></g></g><line x1="30" x2="970" y1="315" y2="315" stroke="#ddd" stroke-dasharray="3,3" stroke-width="1"/><line x1="30" x2="970" y1="252.5" y2="252.5" stroke="#ddd" stroke-dasharray="3,3" stroke-width="1"/><line x1="30" x2="970" y1="190" y2="190" stroke="#ddd" stroke-dasharray="3,3" stroke-width="1"/><line x1="30" x2="970" y1="127.5" y2="127.5" stroke="#ddd" stroke-dasharray="3,3" stroke-width="1"/><g class="transcript-legend" transform="translate(850, 20)"><text x="0" y="0" font-size="12px" font-weight="bold">Transcripts</text><g class="legend-entry" transform="translate(0, 20)"><rect width="12" height="12" fill="#1f77b4"/><text x="20" y="10" font-size="12px">transcript85.AF324493.2.nnic</text></g><g class="legend-entry" transform="translate(0, 40)"><rect width="12" height="12" fill="#ff7f0e"/><text x="20" y="10" font-size="12px">transcript158.AF324493.2.nnic</text></g><g class="legend-entry" transform="translate(0, 60)"><rect width="12" height="12" fill="#2ca02c"/><text x="20" y="10" font-size="12px">transcript51.AF324493.2.nic</text></g><g class="legend-entry" transform="translate(0, 80)"><rect width="12" height="12" fill="#d62728"/><text x="20" y="10" font-size="12px">transcript102.AF324493.2.nic</text></g><g class="legend-entry" transform="translate(0, 100)"><rect width="12" height="12" fill="#9467bd"/><text x="20" y="10" font-size="12px">transcript173.AF324493.2.nnic</text></g><g class="legend-entry" transform="translate(0, 120)"><rect width="12" height="12" fill="#8c564b"/><text x="20" y="10" font-size="12px">transcript168.AF324493.2.nnic</text></g><g class="legend-entry" transform="translate(0, 140)"><rect width="12" height="12" fill="#e377c2"/><text x="20" y="10" font-size="12px">transcript26.AF324493.2.nnic</text></g></g></svg>