<svg xmlns="http://www.w3.org/2000/svg" width="1400" height="700" preserveAspectRatio="xMinYMin meet"><svg x="0" y="0" width="1400" height="63"><rect class="sequence-background" x="0" y="0" width="1400" height="63" fill="#f7f7f7" fill-opacity="0.75"/><g class="nucleotide-group"><g class="nucleotide" transform="translate(0, 0)"><rect width="13.861386138613861" height="43" fill="#A0D6B9"/><text x="6.930693069306931" y="21.5" dy="0.35em" text-anchor="middle" font-family="monospace" font-weight="bold" fill="#333">A</text></g><g class="nucleotide" transform="translate(13.861386138613861, 0)"><rect width="13.861386138613861" height="43" fill="#A0D6B9"/><text x="6.930693069306931" y="21.5" dy="0.35em" text-anchor="middle" font-family="monospace" font-weight="bold" fill="#333">A</text></g><g class="nucleotide" transform="translate(27.722772277227723, 0)"><rect width="13.861386138613861" height="43" fill="#F5A286"/><text x="6.930693069306931" y="21.5" dy="0.35em" text-anchor="middle" font-family="monospace" font-weight="bold" fill="#333">T</text></g><g class="nucleotide" transform="translate(41.584158415841586, 0)"><rect width="13.861386138613861" height="43" fill="#F5A286"/><text x="6.930693069306931" y="21.5" dy="0.35em" text-anchor="middle" font-family="monospace" font-weight="bold" fill="#333">T</text></g><g class="nucleotide" transform="translate(55.445544554455445, 0)"><rect width="13.861386138613861" height="43" fill="#F8D90C"/><text x="6.930693069306931" y="21.5" dy="0.35em" text-anchor="middle" font-family="monospace" font-weight="bold" fill="#333">G</text></g><g class="nucleotide" transform="translate(69.3069306930693, 0)"><rect width="13.861386138613861" height="43" fill="#317BC5"/><text x="6.930693069306931" y="21.5" dy="0.35em" text-anchor="middle" font-family="monospace" font-weight="bold" fill="#333">C</text></g><g class="nucleotide" transform="translate(83.16831683168317, 0)"><rect width="13.861386138613861" height="43" fill="#F5A286"/><text x="6.930693069306931" y="21.5" dy="0.35em" text-anchor="middle" font-family="monospace" font-weight="bold" fill="#333">T</text></g><g class="nucleotide" transform="translate(97.02970297029702, 0)"><rect width="13.861386138613861" height="43" fill="#A0D6B9"/><text x="6.930693069306931" y="21.5" dy="0.35em" text-anchor="middle" font-family="monospace" font-weight="bold" fill="#333">A</text></g><g class="nucleotide" transform="translate(110.89108910891089, 0)"><rect width="13.861386138613861" height="43" fill="#F5A286"/><text x="6.930693069306931" y="21.5" dy="0.35em" text-anchor="middle" font-family="monospace" font-weight="bold" fill="#333">T</text></g><g class="nucleotide" transform="translate(124.75247524752476, 0)"><rect width="13.861386138613861" height="43" fill="#F5A286"/><text x="6.930693069306931" y="21.5" dy="0.35em" text-anchor="middle" font-family="monospace" font-weight="bold" fill="#333">T</text></g><g class="nucleotide" transform="translate(138.6138613861386, 0)"><rect width="13.861386138613861" height="43" fill="#F8D90C"/><text x="6.930693069306931" y="21.5" dy="0.35em" text-anchor="middle" font-family="monospace" font-weight="bold" fill="#333">G</text></g><g class="nucleotide" transform="translate(152.47524752475246, 0)"><rect width="13.861386138613861" height="43" fill="#F5A286"/><text x="6.930693069306931" y="21.5" dy="0.35em" text-anchor="middle" font-family="monospace" font-weight="bold" fill="#333">T</text></g><g class="nucleotide" transform="translate(166.33663366336634, 0)"><rect width="13.861386138613861" height="43" fill="#A0D6B9"/><text x="6.930693069306931" y="21.5" dy="0.35em" text-anchor="middle" font-family="monospace" font-weight="bold" fill="#333">A</text></g><g class="nucleotide" transform="translate(180.1980198019802, 0)"><rect width="13.861386138613861" height="43" fill="#A0D6B9"/><text x="6.930693069306931" y="21.5" dy="0.35em" text-anchor="middle" font-family="monospace" font-weight="bold" fill="#333">A</text></g><g class="nucleotide" transform="translate(194.05940594059405, 0)"><rect width="13.861386138613861" height="43" fill="#A0D6B9"/><text x="6.930693069306931" y="21.5" dy="0.35em" text-anchor="middle" font-family="monospace" font-weight="bold" fill="#333">A</text></g><g class="nucleotide" transform="translate(207.92079207920793, 0)"><rect width="13.861386138613861" height="43" fill="#A0D6B9"/><text x="6.930693069306931" y="21.5" dy="0.35em" text-anchor="middle" font-family="monospace" font-weight="bold" fill="#333">A</text></g><g class="nucleotide" transform="translate(221.78217821782178, 0)"><rect width="13.861386138613861" height="43" fill="#A0D6B9"/><text x="6.930693069306931" y="21.5" dy="0.35em" text-anchor="middle" font-family="monospace" font-weight="bold" fill="#333">A</text></g><g class="nucleotide" transform="translate(235.64356435643563, 0)"><rect width="13.861386138613861" height="43" fill="#F8D90C"/><text x="6.930693069306931" y="21.5" dy="0.35em" text-anchor="middle" font-family="monospace" font-weight="bold" fill="#333">G</text></g><g class="nucleotide" transform="translate(249.5049504950495, 0)"><rect width="13.861386138613861" height="43" fill="#F5A286"/><text x="6.930693069306931" y="21.5" dy="0.35em" text-anchor="middle" font-family="monospace" font-weight="bold" fill="#333">T</text></g><g class="nucleotide" transform="translate(263.36633663366337, 0)"><rect width="13.861386138613861" height="43" fill="#F8D90C"/><text x="6.930693069306931" y="21.5" dy="0.35em" text-anchor="middle" font-family="monospace" font-weight="bold" fill="#333">G</text></g><g class="nucleotide" transform="translate(277.2277227722772, 0)"><rect width="13.861386138613861" height="43" fill="#F5A286"/><text x="6.930693069306931" y="21.5" dy="0.35em" text-anchor="middle" font-family="monospace" font-weight="bold" fill="#333">T</text></g><g class="nucleotide" transform="translate(291.08910891089107, 0)"><rect width="13.861386138613861" height="43" fill="#F5A286"/><text x="6.930693069306931" y="21.5" dy="0.35em" text-anchor="middle" font-family="monospace" font-weight="bold" fill="#333">T</text></g><g class="nucleotide" transform="translate(304.9504950495049, 0)"><rect width="13.861386138613861" height="43" fill="#F8D90C"/><text x="6.930693069306931" y="21.5" dy="0.35em" text-anchor="middle" font-family="monospace" font-weight="bold" fill="#333">G</text></g><g class="nucleotide" transform="translate(318.81188118811883, 0)"><rect width="13.861386138613861" height="43" fill="#317BC5"/><text x="6.930693069306931" y="21.5" dy="0.35em" text-anchor="middle" font-family="monospace" font-weight="bold" fill="#333">C</text></g><g class="nucleotide" transform="translate(332.6732673267327, 0)"><rect width="13.861386138613861" height="43" fill="#F5A286"/><text x="6.930693069306931" y="21.5" dy="0.35em" text-anchor="middle" font-family="monospace" font-weight="bold" fill="#333">T</text></g><g class="nucleotide" transform="translate(346.53465346534654, 0)"><rect width="13.861386138613861" height="43" fill="#F5A286"/><text x="6.930693069306931" y="21.5" dy="0.35em" text-anchor="middle" font-family="monospace" font-weight="bold" fill="#333">T</text></g><g class="nucleotide" transform="translate(360.3960396039604, 0)"><rect width="13.861386138613861" height="43" fill="#F5A286"/><text x="6.930693069306931" y="21.5" dy="0.35em" text-anchor="middle" font-family="monospace" font-weight="bold" fill="#333">T</text></g><g class="nucleotide" transform="translate(374.25742574257424, 0)"><rect width="13.861386138613861" height="43" fill="#317BC5"/><text x="6.930693069306931" y="21.5" dy="0.35em" text-anchor="middle" font-family="monospace" font-weight="bold" fill="#333">C</text></g><g class="nucleotide" transform="translate(388.1188118811881, 0)"><rect width="13.861386138613861" height="43" fill="#A0D6B9"/><text x="6.930693069306931" y="21.5" dy="0.35em" text-anchor="middle" font-family="monospace" font-weight="bold" fill="#333">A</text></g><g class="nucleotide" transform="translate(401.980198019802, 0)"><rect width="13.861386138613861" height="43" fill="#F5A286"/><text x="6.930693069306931" y="21.5" dy="0.35em" text-anchor="middle" font-family="monospace" font-weight="bold" fill="#333">T</text></g><g class="nucleotide" transform="translate(415.84158415841586, 0)"><rect width="13.861386138613861" height="43" fill="#F5A286"/><text x="6.930693069306931" y="21.5" dy="0.35em" text-anchor="middle" font-family="monospace" font-weight="bold" fill="#333">T</text></g><g class="nucleotide" transform="translate(429.7029702970297, 0)"><rect width="13.861386138613861" height="43" fill="#F8D90C"/><text x="6.930693069306931" y="21.5" dy="0.35em" text-anchor="middle" font-family="monospace" font-weight="bold" fill="#333">G</text></g><g class="nucleotide" transform="translate(443.56435643564356, 0)"><rect width="13.861386138613861" height="43" fill="#317BC5"/><text x="6.930693069306931" y="21.5" dy="0.35em" text-anchor="middle" font-family="monospace" font-weight="bold" fill="#333">C</text></g><g class="nucleotide" transform="translate(457.4257425742574, 0)"><rect width="13.861386138613861" height="43" fill="#317BC5"/><text x="6.930693069306931" y="21.5" dy="0.35em" text-anchor="middle" font-family="monospace" font-weight="bold" fill="#333">C</text></g><g class="nucleotide" transform="translate(471.28712871287127, 0)"><rect width="13.861386138613861" height="43" fill="#A0D6B9"/><text x="6.930693069306931" y="21.5" dy="0.35em" text-anchor="middle" font-family="monospace" font-weight="bold" fill="#333">A</text></g><g class="nucleotide" transform="translate(485.1485148514851, 0)"><rect width="13.861386138613861" height="43" fill="#A0D6B9"/><text x="6.930693069306931" y="21.5" dy="0.35em" text-anchor="middle" font-family="monospace" font-weight="bold" fill="#333">A</text></g><g class="nucleotide" transform="translate(499.009900990099, 0)"><rect width="13.861386138613861" height="43" fill="#F8D90C"/><text x="6.930693069306931" y="21.5" dy="0.35em" text-anchor="middle" font-family="monospace" font-weight="bold" fill="#333">G</text></g><g class="nucleotide" transform="translate(512.8712871287129, 0)"><rect width="13.861386138613861" height="43" fill="#F5A286"/><text x="6.930693069306931" y="21.5" dy="0.35em" text-anchor="middle" font-family="monospace" font-weight="bold" fill="#333">T</text></g><g class="nucleotide" transform="translate(526.7326732673267, 0)"><rect width="13.861386138613861" height="43" fill="#F5A286"/><text x="6.930693069306931" y="21.5" dy="0.35em" text-anchor="middle" font-family="monospace" font-weight="bold" fill="#333">T</text></g><g class="nucleotide" transform="translate(540.5940594059406, 0)"><rect width="13.861386138613861" height="43" fill="#F5A286"/><text x="6.930693069306931" y="21.5" dy="0.35em" text-anchor="middle" font-family="monospace" font-weight="bold" fill="#333">T</text></g><g class="nucleotide" transform="translate(554.4554455445544, 0)"><rect width="13.861386138613861" height="43" fill="#F8D90C"/><text x="6.930693069306931" y="21.5" dy="0.35em" text-anchor="middle" font-family="monospace" font-weight="bold" fill="#333">G</text></g><g class="nucleotide" transform="translate(568.3168316831683, 0)"><rect width="13.861386138613861" height="43" fill="#F5A286"/><text x="6.930693069306931" y="21.5" dy="0.35em" text-anchor="middle" font-family="monospace" font-weight="bold" fill="#333">T</text></g><g class="nucleotide" transform="translate(582.1782178217821, 0)"><rect width="13.861386138613861" height="43" fill="#F5A286"/><text x="6.930693069306931" y="21.5" dy="0.35em" text-anchor="middle" font-family="monospace" font-weight="bold" fill="#333">T</text></g><g class="nucleotide" transform="translate(596.039603960396, 0)"><rect width="13.861386138613861" height="43" fill="#F5A286"/><text x="6.930693069306931" y="21.5" dy="0.35em" text-anchor="middle" font-family="monospace" font-weight="bold" fill="#333">T</text></g><g class="nucleotide" transform="translate(609.9009900990098, 0)"><rect width="13.861386138613861" height="43" fill="#317BC5"/><text x="6.930693069306931" y="21.5" dy="0.35em" text-anchor="middle" font-family="monospace" font-weight="bold" fill="#333">C</text></g><g class="nucleotide" transform="translate(623.7623762376238, 0)"><rect width="13.861386138613861" height="43" fill="#A0D6B9"/><text x="6.930693069306931" y="21.5" dy="0.35em" text-anchor="middle" font-family="monospace" font-weight="bold" fill="#333">A</text></g><g class="nucleotide" transform="translate(637.6237623762377, 0)"><rect width="13.861386138613861" height="43" fill="#F5A286"/><text x="6.930693069306931" y="21.5" dy="0.35em" text-anchor="middle" font-family="monospace" font-weight="bold" fill="#333">T</text></g><g class="nucleotide" transform="translate(651.4851485148515, 0)"><rect width="13.861386138613861" height="43" fill="#A0D6B9"/><text x="6.930693069306931" y="21.5" dy="0.35em" text-anchor="middle" font-family="monospace" font-weight="bold" fill="#333">A</text></g><g class="nucleotide" transform="translate(665.3465346534654, 0)"><rect width="13.861386138613861" height="43" fill="#A0D6B9"/><text x="6.930693069306931" y="21.5" dy="0.35em" text-anchor="middle" font-family="monospace" font-weight="bold" fill="#333">A</text></g><g class="nucleotide" transform="translate(679.2079207920792, 0)"><rect width="13.861386138613861" height="43" fill="#317BC5"/><text x="6.930693069306931" y="21.5" dy="0.35em" text-anchor="middle" font-family="monospace" font-weight="bold" fill="#333">C</text></g><g class="nucleotide" transform="translate(693.0693069306931, 0)"><rect width="13.861386138613861" height="43" fill="#A0D6B9"/><text x="6.930693069306931" y="21.5" dy="0.35em" text-anchor="middle" font-family="monospace" font-weight="bold" fill="#333">A</text></g><g class="nucleotide" transform="translate(706.9306930693069, 0)"><rect width="13.861386138613861" height="43" fill="#A0D6B9"/><text x="6.930693069306931" y="21.5" dy="0.35em" text-anchor="middle" font-family="monospace" font-weight="bold" fill="#333">A</text></g><g class="nucleotide" transform="translate(720.7920792079208, 0)"><rect width="13.861386138613861" height="43" fill="#A0D6B9"/><text x="6.930693069306931" y="21.5" dy="0.35em" text-anchor="middle" font-family="monospace" font-weight="bold" fill="#333">A</text></g><g class="nucleotide" transform="translate(734.6534653465346, 0)"><rect width="13.861386138613861" height="43" fill="#A0D6B9"/><text x="6.930693069306931" y="21.5" dy="0.35em" text-anchor="middle" font-family="monospace" font-weight="bold" fill="#333">A</text></g><g class="nucleotide" transform="translate(748.5148514851485, 0)"><rect width="13.861386138613861" height="43" fill="#F8D90C"/><text x="6.930693069306931" y="21.5" dy="0.35em" text-anchor="middle" font-family="monospace" font-weight="bold" fill="#333">G</text></g><g class="nucleotide" transform="translate(762.3762376237623, 0)"><rect width="13.861386138613861" height="43" fill="#317BC5"/><text x="6.930693069306931" y="21.5" dy="0.35em" text-anchor="middle" font-family="monospace" font-weight="bold" fill="#333">C</text></g><g class="nucleotide" transform="translate(776.2376237623762, 0)"><rect width="13.861386138613861" height="43" fill="#317BC5"/><text x="6.930693069306931" y="21.5" dy="0.35em" text-anchor="middle" font-family="monospace" font-weight="bold" fill="#333">C</text></g><g class="nucleotide" transform="translate(790.09900990099, 0)"><rect width="13.861386138613861" height="43" fill="#F5A286"/><text x="6.930693069306931" y="21.5" dy="0.35em" text-anchor="middle" font-family="monospace" font-weight="bold" fill="#333">T</text></g><g class="nucleotide" transform="translate(803.960396039604, 0)"><rect width="13.861386138613861" height="43" fill="#F5A286"/><text x="6.930693069306931" y="21.5" dy="0.35em" text-anchor="middle" font-family="monospace" font-weight="bold" fill="#333">T</text></g><g class="nucleotide" transform="translate(817.8217821782179, 0)"><rect width="13.861386138613861" height="43" fill="#A0D6B9"/><text x="6.930693069306931" y="21.5" dy="0.35em" text-anchor="middle" font-family="monospace" font-weight="bold" fill="#333">A</text></g><g class="nucleotide" transform="translate(831.6831683168317, 0)"><rect width="13.861386138613861" height="43" fill="#F8D90C"/><text x="6.930693069306931" y="21.5" dy="0.35em" text-anchor="middle" font-family="monospace" font-weight="bold" fill="#333">G</text></g><g class="nucleotide" transform="translate(845.5445544554456, 0)"><rect width="13.861386138613861" height="43" fill="#F8D90C"/><text x="6.930693069306931" y="21.5" dy="0.35em" text-anchor="middle" font-family="monospace" font-weight="bold" fill="#333">G</text></g><g class="nucleotide" transform="translate(859.4059405940594, 0)"><rect width="13.861386138613861" height="43" fill="#317BC5"/><text x="6.930693069306931" y="21.5" dy="0.35em" text-anchor="middle" font-family="monospace" font-weight="bold" fill="#333">C</text></g><g class="nucleotide" transform="translate(873.2673267326733, 0)"><rect width="13.861386138613861" height="43" fill="#A0D6B9"/><text x="6.930693069306931" y="21.5" dy="0.35em" text-anchor="middle" font-family="monospace" font-weight="bold" fill="#333">A</text></g><g class="nucleotide" transform="translate(887.1287128712871, 0)"><rect width="13.861386138613861" height="43" fill="#F5A286"/><text x="6.930693069306931" y="21.5" dy="0.35em" text-anchor="middle" font-family="monospace" font-weight="bold" fill="#333">T</text></g><g class="nucleotide" transform="translate(900.990099009901, 0)"><rect width="13.861386138613861" height="43" fill="#317BC5"/><text x="6.930693069306931" y="21.5" dy="0.35em" text-anchor="middle" font-family="monospace" font-weight="bold" fill="#333">C</text></g><g class="nucleotide" transform="translate(914.8514851485148, 0)"><rect width="13.861386138613861" height="43" fill="#F5A286"/><text x="6.930693069306931" y="21.5" dy="0.35em" text-anchor="middle" font-family="monospace" font-weight="bold" fill="#333">T</text></g><g class="nucleotide" transform="translate(928.7128712871287, 0)"><rect width="13.861386138613861" height="43" fill="#317BC5"/><text x="6.930693069306931" y="21.5" dy="0.35em" text-anchor="middle" font-family="monospace" font-weight="bold" fill="#333">C</text></g><g class="nucleotide" transform="translate(942.5742574257425, 0)"><rect width="13.861386138613861" height="43" fill="#317BC5"/><text x="6.930693069306931" y="21.5" dy="0.35em" text-anchor="middle" font-family="monospace" font-weight="bold" fill="#333">C</text></g><g class="nucleotide" transform="translate(956.4356435643564, 0)"><rect width="13.861386138613861" height="43" fill="#F5A286"/><text x="6.930693069306931" y="21.5" dy="0.35em" text-anchor="middle" font-family="monospace" font-weight="bold" fill="#333">T</text></g><g class="nucleotide" transform="translate(970.2970297029702, 0)"><rect width="13.861386138613861" height="43" fill="#A0D6B9"/><text x="6.930693069306931" y="21.5" dy="0.35em" text-anchor="middle" font-family="monospace" font-weight="bold" fill="#333">A</text></g><g class="nucleotide" transform="translate(984.1584158415842, 0)"><rect width="13.861386138613861" height="43" fill="#F5A286"/><text x="6.930693069306931" y="21.5" dy="0.35em" text-anchor="middle" font-family="monospace" font-weight="bold" fill="#333">T</text></g><g class="nucleotide" transform="translate(998.019801980198, 0)"><rect width="13.861386138613861" height="43" fill="#F8D90C"/><text x="6.930693069306931" y="21.5" dy="0.35em" text-anchor="middle" font-family="monospace" font-weight="bold" fill="#333">G</text></g><g class="nucleotide" transform="translate(1011.8811881188119, 0)"><rect width="13.861386138613861" height="43" fill="#F8D90C"/><text x="6.930693069306931" y="21.5" dy="0.35em" text-anchor="middle" font-family="monospace" font-weight="bold" fill="#333">G</text></g><g class="nucleotide" transform="translate(1025.7425742574258, 0)"><rect width="13.861386138613861" height="43" fill="#317BC5"/><text x="6.930693069306931" y="21.5" dy="0.35em" text-anchor="middle" font-family="monospace" font-weight="bold" fill="#333">C</text></g><g class="nucleotide" transform="translate(1039.6039603960396, 0)"><rect width="13.861386138613861" height="43" fill="#A0D6B9"/><text x="6.930693069306931" y="21.5" dy="0.35em" text-anchor="middle" font-family="monospace" font-weight="bold" fill="#333">A</text></g><g class="nucleotide" transform="translate(1053.4653465346535, 0)"><rect width="13.861386138613861" height="43" fill="#F8D90C"/><text x="6.930693069306931" y="21.5" dy="0.35em" text-anchor="middle" font-family="monospace" font-weight="bold" fill="#333">G</text></g><g class="nucleotide" transform="translate(1067.3267326732673, 0)"><rect width="13.861386138613861" height="43" fill="#F8D90C"/><text x="6.930693069306931" y="21.5" dy="0.35em" text-anchor="middle" font-family="monospace" font-weight="bold" fill="#333">G</text></g><g class="nucleotide" transform="translate(1081.1881188118812, 0)"><rect width="13.861386138613861" height="43" fill="#A0D6B9"/><text x="6.930693069306931" y="21.5" dy="0.35em" text-anchor="middle" font-family="monospace" font-weight="bold" fill="#333">A</text></g><g class="nucleotide" transform="translate(1095.049504950495, 0)"><rect width="13.861386138613861" height="43" fill="#A0D6B9"/><text x="6.930693069306931" y="21.5" dy="0.35em" text-anchor="middle" font-family="monospace" font-weight="bold" fill="#333">A</text></g><g class="nucleotide" transform="translate(1108.9108910891089, 0)"><rect width="13.861386138613861" height="43" fill="#F8D90C"/><text x="6.930693069306931" y="21.5" dy="0.35em" text-anchor="middle" font-family="monospace" font-weight="bold" fill="#333">G</text></g><g class="nucleotide" transform="translate(1122.7722772277227, 0)"><rect width="13.861386138613861" height="43" fill="#A0D6B9"/><text x="6.930693069306931" y="21.5" dy="0.35em" text-anchor="middle" font-family="monospace" font-weight="bold" fill="#333">A</text></g><g class="nucleotide" transform="translate(1136.6336633663366, 0)"><rect width="13.861386138613861" height="43" fill="#A0D6B9"/><text x="6.930693069306931" y="21.5" dy="0.35em" text-anchor="middle" font-family="monospace" font-weight="bold" fill="#333">A</text></g><g class="nucleotide" transform="translate(1150.4950495049504, 0)"><rect width="13.861386138613861" height="43" fill="#F8D90C"/><text x="6.930693069306931" y="21.5" dy="0.35em" text-anchor="middle" font-family="monospace" font-weight="bold" fill="#333">G</text></g><g class="nucleotide" transform="translate(1164.3564356435643, 0)"><rect width="13.861386138613861" height="43" fill="#317BC5"/><text x="6.930693069306931" y="21.5" dy="0.35em" text-anchor="middle" font-family="monospace" font-weight="bold" fill="#333">C</text></g><g class="nucleotide" transform="translate(1178.2178217821781, 0)"><rect width="13.861386138613861" height="43" fill="#F8D90C"/><text x="6.930693069306931" y="21.5" dy="0.35em" text-anchor="middle" font-family="monospace" font-weight="bold" fill="#333">G</text></g><g class="nucleotide" transform="translate(1192.079207920792, 0)"><rect width="13.861386138613861" height="43" fill="#F8D90C"/><text x="6.930693069306931" y="21.5" dy="0.35em" text-anchor="middle" font-family="monospace" font-weight="bold" fill="#333">G</text></g><g class="nucleotide" transform="translate(1205.9405940594058, 0)"><rect width="13.861386138613861" height="43" fill="#A0D6B9"/><text x="6.930693069306931" y="21.5" dy="0.35em" text-anchor="middle" font-family="monospace" font-weight="bold" fill="#333">A</text></g><g class="nucleotide" transform="translate(1219.8019801980197, 0)"><rect width="13.861386138613861" height="43" fill="#F8D90C"/><text x="6.930693069306931" y="21.5" dy="0.35em" text-anchor="middle" font-family="monospace" font-weight="bold" fill="#333">G</text></g><g class="nucleotide" transform="translate(1233.6633663366335, 0)"><rect width="13.861386138613861" height="43" fill="#A0D6B9"/><text x="6.930693069306931" y="21.5" dy="0.35em" text-anchor="middle" font-family="monospace" font-weight="bold" fill="#333">A</text></g><g class="nucleotide" transform="translate(1247.5247524752476, 0)"><rect width="13.861386138613861" height="43" fill="#317BC5"/><text x="6.930693069306931" y="21.5" dy="0.35em" text-anchor="middle" font-family="monospace" font-weight="bold" fill="#333">C</text></g><g class="nucleotide" transform="translate(1261.3861386138615, 0)"><rect width="13.861386138613861" height="43" fill="#A0D6B9"/><text x="6.930693069306931" y="21.5" dy="0.35em" text-anchor="middle" font-family="monospace" font-weight="bold" fill="#333">A</text></g><g class="nucleotide" transform="translate(1275.2475247524753, 0)"><rect width="13.861386138613861" height="43" fill="#F8D90C"/><text x="6.930693069306931" y="21.5" dy="0.35em" text-anchor="middle" font-family="monospace" font-weight="bold" fill="#333">G</text></g><g class="nucleotide" transform="translate(1289.1089108910892, 0)"><rect width="13.861386138613861" height="43" fill="#317BC5"/><text x="6.930693069306931" y="21.5" dy="0.35em" text-anchor="middle" font-family="monospace" font-weight="bold" fill="#333">C</text></g><g class="nucleotide" transform="translate(1302.970297029703, 0)"><rect width="13.861386138613861" height="43" fill="#F8D90C"/><text x="6.930693069306931" y="21.5" dy="0.35em" text-anchor="middle" font-family="monospace" font-weight="bold" fill="#333">G</text></g><g class="nucleotide" transform="translate(1316.8316831683169, 0)"><rect width="13.861386138613861" height="43" fill="#A0D6B9"/><text x="6.930693069306931" y="21.5" dy="0.35em" text-anchor="middle" font-family="monospace" font-weight="bold" fill="#333">A</text></g><g class="nucleotide" transform="translate(1330.6930693069307, 0)"><rect width="13.861386138613861" height="43" fill="#317BC5"/><text x="6.930693069306931" y="21.5" dy="0.35em" text-anchor="middle" font-family="monospace" font-weight="bold" fill="#333">C</text></g><g class="nucleotide" transform="translate(1344.5544554455446, 0)"><rect width="13.861386138613861" height="43" fill="#F8D90C"/><text x="6.930693069306931" y="21.5" dy="0.35em" text-anchor="middle" font-family="monospace" font-weight="bold" fill="#333">G</text></g><g class="nucleotide" transform="translate(1358.4158415841584, 0)"><rect width="13.861386138613861" height="43" fill="#A0D6B9"/><text x="6.930693069306931" y="21.5" dy="0.35em" text-anchor="middle" font-family="monospace" font-weight="bold" fill="#333">A</text></g><g class="nucleotide" transform="translate(1372.2772277227723, 0)"><rect width="13.861386138613861" height="43" fill="#A0D6B9"/><text x="6.930693069306931" y="21.5" dy="0.35em" text-anchor="middle" font-family="monospace" font-weight="bold" fill="#333">A</text></g><g class="nucleotide" transform="translate(1386.1386138613861, 0)"><rect width="13.861386138613861" height="43" fill="#F8D90C"/><text x="6.930693069306931" y="21.5" dy="0.35em" text-anchor="middle" font-family="monospace" font-weight="bold" fill="#333">G</text></g></g><g class="x-axis" transform="translate(0, 43)" fill="none" font-size="10" font-family="sans-serif" text-anchor="middle"><path class="domain" stroke="currentColor" d="M7.430693069306931,6V0.5H1393.569306930693V6"/><g class="tick" opacity="1" transform="translate(7.430693069306931,0)"><line stroke="currentColor" y2="6"/><text fill="currentColor" y="9" dy="0.71em">5900</text></g><g class="tick" opacity="1" transform="translate(159.90594059405942,0)"><line stroke="currentColor" y2="6"/><text fill="currentColor" y="9" dy="0.71em">5911</text></g><g class="tick" opacity="1" transform="translate(312.3811881188119,0)"><line stroke="currentColor" y2="6"/><text fill="currentColor" y="9" dy="0.71em">5922</text></g><g class="tick" opacity="1" transform="translate(464.8564356435644,0)"><line stroke="currentColor" y2="6"/><text fill="currentColor" y="9" dy="0.71em">5933</text></g><g class="tick" opacity="1" transform="translate(617.3316831683169,0)"><line stroke="currentColor" y2="6"/><text fill="currentColor" y="9" dy="0.71em">5944</text></g><g class="tick" opacity="1" transform="translate(769.8069306930694,0)"><line stroke="currentColor" y2="6"/><text fill="currentColor" y="9" dy="0.71em">5955</text></g><g class="tick" opacity="1" transform="translate(922.2821782178219,0)"><line stroke="currentColor" y2="6"/><text fill="currentColor" y="9" dy="0.71em">5966</text></g><g class="tick" opacity="1" transform="translate(1074.7574257425745,0)"><line stroke="currentColor" y2="6"/><text fill="currentColor" y="9" dy="0.71em">5977</text></g><g class="tick" opacity="1" transform="translate(1227.2326732673268,0)"><line stroke="currentColor" y2="6"/><text fill="currentColor" y="9" dy="0.71em">5988</text></g><g class="tick" opacity="1" transform="translate(1379.7079207920792,0)"><line stroke="currentColor" y2="6"/><text fill="currentColor" y="9" dy="0.71em">5999</text></g></g></svg><svg x="0" y="63" width="1400" height="637"><svg x="0" y="0" width="1400" height="15.536585365853652"><rect x="1078" y="3.884146341463413" width="322" height="7.768292682926826" style="fill: rgb(74, 136, 202);"/><line x1="0" y1="7.768292682926826" x2="1078" y2="7.768292682926826" style="stroke: rgb(40, 2, 116); stroke-width: 1px;"/></svg><svg x="0" y="15.536585365853652" width="1400" height="15.536585365853652"><rect x="854" y="3.884146341463413" width="546" height="7.768292682926826" style="fill: rgb(74, 136, 202);"/><line x1="0" y1="7.768292682926826" x2="854" y2="7.768292682926826" style="stroke: rgb(40, 2, 116); stroke-width: 1px;"/></svg><svg x="0" y="31.073170731707304" width="1400" height="15.536585365853652"><rect x="770.0000000000001" y="3.884146341463413" width="629.9999999999999" height="7.768292682926826" style="fill: rgb(74, 136, 202);"/><line x1="0" y1="7.768292682926826" x2="770.0000000000001" y2="7.768292682926826" style="stroke: rgb(40, 2, 116); stroke-width: 1px;"/></svg><svg x="0" y="46.609756097560954" width="1400" height="15.536585365853652"><rect x="518" y="3.884146341463413" width="882" height="7.768292682926826" style="fill: rgb(74, 136, 202);"/><line x1="0" y1="7.768292682926826" x2="518" y2="7.768292682926826" style="stroke: rgb(40, 2, 116); stroke-width: 1px;"/></svg><svg x="0" y="62.14634146341461" width="1400" height="15.536585365853652"><rect x="1078" y="3.884146341463413" width="322" height="7.768292682926826" style="fill: rgb(74, 136, 202);"/><line x1="0" y1="7.768292682926826" x2="1078" y2="7.768292682926826" style="stroke: rgb(40, 2, 116); stroke-width: 1px;"/></svg><svg x="0" y="77.68292682926825" width="1400" height="15.536585365853652"><rect x="854" y="3.884146341463413" width="546" height="7.768292682926826" style="fill: rgb(74, 136, 202);"/><line x1="0" y1="7.768292682926826" x2="854" y2="7.768292682926826" style="stroke: rgb(40, 2, 116); stroke-width: 1px;"/></svg><svg x="0" y="93.21951219512191" width="1400" height="15.536585365853652"><rect x="770.0000000000001" y="3.884146341463413" width="629.9999999999999" height="7.768292682926826" style="fill: rgb(74, 136, 202);"/><line x1="0" y1="7.768292682926826" x2="770.0000000000001" y2="7.768292682926826" style="stroke: rgb(40, 2, 116); stroke-width: 1px;"/></svg><svg x="0" y="108.75609756097556" width="1400" height="15.536585365853652"><rect x="518" y="3.884146341463413" width="882" height="7.768292682926826" style="fill: rgb(74, 136, 202);"/><line x1="0" y1="7.768292682926826" x2="518" y2="7.768292682926826" style="stroke: rgb(40, 2, 116); stroke-width: 1px;"/></svg><svg x="0" y="124.29268292682922" width="1400" height="15.536585365853652"><rect x="854" y="3.884146341463413" width="546" height="7.768292682926826" style="fill: rgb(74, 136, 202);"/><line x1="0" y1="7.768292682926826" x2="854" y2="7.768292682926826" style="stroke: rgb(40, 2, 116); stroke-width: 1px;"/></svg><svg x="0" y="139.82926829268285" width="1400" height="15.536585365853652"><rect x="770.0000000000001" y="3.884146341463413" width="629.9999999999999" height="7.768292682926826" style="fill: rgb(74, 136, 202);"/><line x1="0" y1="7.768292682926826" x2="770.0000000000001" y2="7.768292682926826" style="stroke: rgb(40, 2, 116); stroke-width: 1px;"/></svg><svg x="0" y="155.3658536585365" width="1400" height="15.536585365853652"><rect x="1078" y="3.884146341463413" width="322" height="7.768292682926826" style="fill: rgb(74, 136, 202);"/><line x1="0" y1="7.768292682926826" x2="1078" y2="7.768292682926826" style="stroke: rgb(40, 2, 116); stroke-width: 1px;"/></svg><svg x="0" y="170.90243902439016" width="1400" height="15.536585365853652"><rect x="854" y="3.884146341463413" width="546" height="7.768292682926826" style="fill: rgb(74, 136, 202);"/><line x1="0" y1="7.768292682926826" x2="854" y2="7.768292682926826" style="stroke: rgb(40, 2, 116); stroke-width: 1px;"/></svg><svg x="0" y="186.43902439024382" width="1400" height="15.536585365853652"><rect x="770.0000000000001" y="3.884146341463413" width="629.9999999999999" height="7.768292682926826" style="fill: rgb(74, 136, 202);"/><line x1="0" y1="7.768292682926826" x2="770.0000000000001" y2="7.768292682926826" style="stroke: rgb(40, 2, 116); stroke-width: 1px;"/></svg><svg x="0" y="201.97560975609747" width="1400" height="15.536585365853652"><rect x="518" y="3.884146341463413" width="882" height="7.768292682926826" style="fill: rgb(74, 136, 202);"/><line x1="0" y1="7.768292682926826" x2="518" y2="7.768292682926826" style="stroke: rgb(40, 2, 116); stroke-width: 1px;"/></svg><svg x="0" y="217.51219512195112" width="1400" height="15.536585365853652"><rect x="1078" y="3.884146341463413" width="322" height="7.768292682926826" style="fill: rgb(74, 136, 202);"/><line x1="0" y1="7.768292682926826" x2="1078" y2="7.768292682926826" style="stroke: rgb(40, 2, 116); stroke-width: 1px;"/></svg><svg x="0" y="233.04878048780478" width="1400" height="15.536585365853652"><rect x="0" y="3.884146341463413" width="1400" height="7.768292682926826" style="fill: rgb(74, 136, 202);"/></svg><svg x="0" y="248.58536585365843" width="1400" height="15.536585365853652"><rect x="0" y="3.884146341463413" width="1400" height="7.768292682926826" style="fill: rgb(74, 136, 202);"/></svg><svg x="0" y="264.1219512195121" width="1400" height="15.536585365853652"><line x1="0" y1="7.768292682926826" x2="1400" y2="7.768292682926826" style="stroke: rgb(40, 2, 116); stroke-width: 1px;"/></svg><svg x="0" y="279.6585365853657" width="1400" height="15.536585365853652"><rect x="1078" y="3.884146341463413" width="322" height="7.768292682926826" style="fill: rgb(74, 136, 202);"/><line x1="0" y1="7.768292682926826" x2="1078" y2="7.768292682926826" style="stroke: rgb(40, 2, 116); stroke-width: 1px;"/><line x1="1400" y1="7.768292682926826" x2="1400" y2="7.768292682926826" style="stroke: rgb(40, 2, 116); stroke-width: 1px;"/></svg><svg x="0" y="295.19512195121933" width="1400" height="15.536585365853652"><rect x="1078" y="3.884146341463413" width="322" height="7.768292682926826" style="fill: rgb(74, 136, 202);"/><line x1="0" y1="7.768292682926826" x2="1078" y2="7.768292682926826" style="stroke: rgb(40, 2, 116); stroke-width: 1px;"/><line x1="1400" y1="7.768292682926826" x2="1400" y2="7.768292682926826" style="stroke: rgb(40, 2, 116); stroke-width: 1px;"/></svg><svg x="0" y="310.73170731707296" width="1400" height="15.536585365853652"><rect x="1078" y="3.884146341463413" width="322" height="7.768292682926826" style="fill: rgb(74, 136, 202);"/><line x1="0" y1="7.768292682926826" x2="1078" y2="7.768292682926826" style="stroke: rgb(40, 2, 116); stroke-width: 1px;"/><line x1="1400" y1="7.768292682926826" x2="1400" y2="7.768292682926826" style="stroke: rgb(40, 2, 116); stroke-width: 1px;"/></svg><svg x="0" y="326.2682926829266" width="1400" height="15.536585365853652"><rect x="854" y="3.884146341463413" width="546" height="7.768292682926826" style="fill: rgb(74, 136, 202);"/><line x1="0" y1="7.768292682926826" x2="854" y2="7.768292682926826" style="stroke: rgb(40, 2, 116); stroke-width: 1px;"/><line x1="1400" y1="7.768292682926826" x2="1400" y2="7.768292682926826" style="stroke: rgb(40, 2, 116); stroke-width: 1px;"/><rect x="979.9999999999999" y="1.9420731707317065" width="420.0000000000001" height="11.652439024390238" style="fill: rgb(242, 193, 78);"/></svg><svg x="0" y="341.8048780487802" width="1400" height="15.536585365853652"><rect x="854" y="3.884146341463413" width="546" height="7.768292682926826" style="fill: rgb(74, 136, 202);"/><line x1="0" y1="7.768292682926826" x2="854" y2="7.768292682926826" style="stroke: rgb(40, 2, 116); stroke-width: 1px;"/><line x1="1400" y1="7.768292682926826" x2="1400" y2="7.768292682926826" style="stroke: rgb(40, 2, 116); stroke-width: 1px;"/><rect x="979.9999999999999" y="1.9420731707317065" width="420.0000000000001" height="11.652439024390238" style="fill: rgb(242, 193, 78);"/></svg><svg x="0" y="357.34146341463384" width="1400" height="15.536585365853652"><rect x="770.0000000000001" y="3.884146341463413" width="629.9999999999999" height="7.768292682926826" style="fill: rgb(74, 136, 202);"/><line x1="0" y1="7.768292682926826" x2="770.0000000000001" y2="7.768292682926826" style="stroke: rgb(40, 2, 116); stroke-width: 1px;"/><line x1="1400" y1="7.768292682926826" x2="1400" y2="7.768292682926826" style="stroke: rgb(40, 2, 116); stroke-width: 1px;"/><rect x="979.9999999999999" y="1.9420731707317065" width="420.0000000000001" height="11.652439024390238" style="fill: rgb(242, 193, 78);"/></svg><svg x="0" y="372.87804878048746" width="1400" height="15.536585365853652"><rect x="518" y="3.884146341463413" width="882" height="7.768292682926826" style="fill: rgb(74, 136, 202);"/><line x1="0" y1="7.768292682926826" x2="518" y2="7.768292682926826" style="stroke: rgb(40, 2, 116); stroke-width: 1px;"/><line x1="1400" y1="7.768292682926826" x2="1400" y2="7.768292682926826" style="stroke: rgb(40, 2, 116); stroke-width: 1px;"/><rect x="979.9999999999999" y="1.9420731707317065" width="420.0000000000001" height="11.652439024390238" style="fill: rgb(242, 193, 78);"/></svg><svg x="0" y="388.4146341463411" width="1400" height="15.536585365853652"><rect x="770.0000000000001" y="3.884146341463413" width="629.9999999999999" height="7.768292682926826" style="fill: rgb(74, 136, 202);"/><line x1="0" y1="7.768292682926826" x2="770.0000000000001" y2="7.768292682926826" style="stroke: rgb(40, 2, 116); stroke-width: 1px;"/><line x1="1400" y1="7.768292682926826" x2="1400" y2="7.768292682926826" style="stroke: rgb(40, 2, 116); stroke-width: 1px;"/><rect x="979.9999999999999" y="1.9420731707317065" width="420.0000000000001" height="11.652439024390238" style="fill: rgb(242, 193, 78);"/></svg><svg x="0" y="403.9512195121947" width="1400" height="15.536585365853652"><rect x="854" y="3.884146341463413" width="546" height="7.768292682926826" style="fill: rgb(74, 136, 202);"/><line x1="0" y1="7.768292682926826" x2="854" y2="7.768292682926826" style="stroke: rgb(40, 2, 116); stroke-width: 1px;"/><line x1="1400" y1="7.768292682926826" x2="1400" y2="7.768292682926826" style="stroke: rgb(40, 2, 116); stroke-width: 1px;"/><rect x="979.9999999999999" y="1.9420731707317065" width="420.0000000000001" height="11.652439024390238" style="fill: rgb(242, 193, 78);"/></svg><svg x="0" y="419.48780487804834" width="1400" height="15.536585365853652"><rect x="770.0000000000001" y="3.884146341463413" width="629.9999999999999" height="7.768292682926826" style="fill: rgb(74, 136, 202);"/><line x1="0" y1="7.768292682926826" x2="770.0000000000001" y2="7.768292682926826" style="stroke: rgb(40, 2, 116); stroke-width: 1px;"/><line x1="1400" y1="7.768292682926826" x2="1400" y2="7.768292682926826" style="stroke: rgb(40, 2, 116); stroke-width: 1px;"/><rect x="979.9999999999999" y="1.9420731707317065" width="420.0000000000001" height="11.652439024390238" style="fill: rgb(242, 193, 78);"/></svg><svg x="0" y="435.02439024390196" width="1400" height="15.536585365853652"><rect x="518" y="3.884146341463413" width="882" height="7.768292682926826" style="fill: rgb(74, 136, 202);"/><line x1="0" y1="7.768292682926826" x2="518" y2="7.768292682926826" style="stroke: rgb(40, 2, 116); stroke-width: 1px;"/><line x1="1400" y1="7.768292682926826" x2="1400" y2="7.768292682926826" style="stroke: rgb(40, 2, 116); stroke-width: 1px;"/><rect x="979.9999999999999" y="1.9420731707317065" width="420.0000000000001" height="11.652439024390238" style="fill: rgb(242, 193, 78);"/></svg><svg x="0" y="450.5609756097556" width="1400" height="15.536585365853652"><rect x="854" y="3.884146341463413" width="546" height="7.768292682926826" style="fill: rgb(74, 136, 202);"/><line x1="0" y1="7.768292682926826" x2="854" y2="7.768292682926826" style="stroke: rgb(40, 2, 116); stroke-width: 1px;"/><line x1="1400" y1="7.768292682926826" x2="1400" y2="7.768292682926826" style="stroke: rgb(40, 2, 116); stroke-width: 1px;"/><rect x="979.9999999999999" y="1.9420731707317065" width="420.0000000000001" height="11.652439024390238" style="fill: rgb(242, 193, 78);"/></svg><svg x="0" y="466.0975609756092" width="1400" height="15.536585365853652"><rect x="770.0000000000001" y="3.884146341463413" width="629.9999999999999" height="7.768292682926826" style="fill: rgb(74, 136, 202);"/><line x1="0" y1="7.768292682926826" x2="770.0000000000001" y2="7.768292682926826" style="stroke: rgb(40, 2, 116); stroke-width: 1px;"/><line x1="1400" y1="7.768292682926826" x2="1400" y2="7.768292682926826" style="stroke: rgb(40, 2, 116); stroke-width: 1px;"/><rect x="979.9999999999999" y="1.9420731707317065" width="420.0000000000001" height="11.652439024390238" style="fill: rgb(242, 193, 78);"/></svg><svg x="0" y="481.63414634146284" width="1400" height="15.536585365853652"><rect x="518" y="3.884146341463413" width="882" height="7.768292682926826" style="fill: rgb(74, 136, 202);"/><line x1="0" y1="7.768292682926826" x2="518" y2="7.768292682926826" style="stroke: rgb(40, 2, 116); stroke-width: 1px;"/><line x1="1400" y1="7.768292682926826" x2="1400" y2="7.768292682926826" style="stroke: rgb(40, 2, 116); stroke-width: 1px;"/><rect x="979.9999999999999" y="1.9420731707317065" width="420.0000000000001" height="11.652439024390238" style="fill: rgb(242, 193, 78);"/></svg><svg x="0" y="497.17073170731646" width="1400" height="15.536585365853652"><rect x="0" y="3.884146341463413" width="1400" height="7.768292682926826" style="fill: rgb(74, 136, 202);"/><line x1="0" y1="7.768292682926826" x2="0" y2="7.768292682926826" style="stroke: rgb(40, 2, 116); stroke-width: 1px;"/><line x1="1400" y1="7.768292682926826" x2="1400" y2="7.768292682926826" style="stroke: rgb(40, 2, 116); stroke-width: 1px;"/><rect x="0" y="1.9420731707317065" width="1400" height="11.652439024390238" style="fill: rgb(242, 193, 78);"/></svg><svg x="0" y="512.7073170731701" width="1400" height="15.536585365853652"><rect x="0" y="3.884146341463413" width="1400" height="7.768292682926826" style="fill: rgb(74, 136, 202);"/><line x1="0" y1="7.768292682926826" x2="0" y2="7.768292682926826" style="stroke: rgb(40, 2, 116); stroke-width: 1px;"/><line x1="1400" y1="7.768292682926826" x2="1400" y2="7.768292682926826" style="stroke: rgb(40, 2, 116); stroke-width: 1px;"/><rect x="0" y="1.9420731707317065" width="1400" height="11.652439024390238" style="fill: rgb(242, 193, 78);"/></svg><svg x="0" y="528.2439024390237" width="1400" height="15.536585365853652"><rect x="0" y="3.884146341463413" width="1400" height="7.768292682926826" style="fill: rgb(74, 136, 202);"/><line x1="0" y1="7.768292682926826" x2="0" y2="7.768292682926826" style="stroke: rgb(40, 2, 116); stroke-width: 1px;"/><line x1="1400" y1="7.768292682926826" x2="1400" y2="7.768292682926826" style="stroke: rgb(40, 2, 116); stroke-width: 1px;"/><rect x="0" y="1.9420731707317065" width="1400" height="11.652439024390238" style="fill: rgb(242, 193, 78);"/></svg><svg x="0" y="543.7804878048773" width="1400" height="15.536585365853652"><rect x="0" y="3.884146341463413" width="1400" height="7.768292682926826" style="fill: rgb(74, 136, 202);"/><line x1="0" y1="7.768292682926826" x2="0" y2="7.768292682926826" style="stroke: rgb(40, 2, 116); stroke-width: 1px;"/><line x1="1400" y1="7.768292682926826" x2="1400" y2="7.768292682926826" style="stroke: rgb(40, 2, 116); stroke-width: 1px;"/><rect x="0" y="1.9420731707317065" width="1400" height="11.652439024390238" style="fill: rgb(242, 193, 78);"/></svg><svg x="0" y="559.317073170731" width="1400" height="15.536585365853652"><rect x="0" y="3.884146341463413" width="1400" height="7.768292682926826" style="fill: rgb(74, 136, 202);"/><line x1="0" y1="7.768292682926826" x2="0" y2="7.768292682926826" style="stroke: rgb(40, 2, 116); stroke-width: 1px;"/></svg><svg x="0" y="574.8536585365846" width="1400" height="15.536585365853652"><rect x="0" y="3.884146341463413" width="1400" height="7.768292682926826" style="fill: rgb(74, 136, 202);"/><line x1="0" y1="7.768292682926826" x2="0" y2="7.768292682926826" style="stroke: rgb(40, 2, 116); stroke-width: 1px;"/><line x1="1400" y1="7.768292682926826" x2="1400" y2="7.768292682926826" style="stroke: rgb(40, 2, 116); stroke-width: 1px;"/></svg><svg x="0" y="590.3902439024382" width="1400" height="15.536585365853652"><rect x="0" y="3.884146341463413" width="1400" height="7.768292682926826" style="fill: rgb(74, 136, 202);"/><line x1="0" y1="7.768292682926826" x2="0" y2="7.768292682926826" style="stroke: rgb(40, 2, 116); stroke-width: 1px;"/><line x1="1400" y1="7.768292682926826" x2="1400" y2="7.768292682926826" style="stroke: rgb(40, 2, 116); stroke-width: 1px;"/></svg><svg x="0" y="605.9268292682918" width="1400" height="15.536585365853652"><rect x="0" y="3.884146341463413" width="1400" height="7.768292682926826" style="fill: rgb(74, 136, 202);"/><line x1="0" y1="7.768292682926826" x2="0" y2="7.768292682926826" style="stroke: rgb(40, 2, 116); stroke-width: 1px;"/></svg><svg x="0" y="621.4634146341455" width="1400" height="15.536585365853652"><rect x="0" y="3.884146341463413" width="1400" height="7.768292682926826" style="fill: rgb(74, 136, 202);"/><line x1="0" y1="7.768292682926826" x2="0" y2="7.768292682926826" style="stroke: rgb(40, 2, 116); stroke-width: 1px;"/></svg></svg></svg>